<?xml version="1.0" encoding="utf-8"?>
<!-- Generator: Adobe Illustrator 19.1.0, SVG Export Plug-In . SVG Version: 6.00 Build 0)  -->
<svg version="1.1" id="Layer_1" xmlns="http://www.w3.org/2000/svg" xmlns:xlink="http://www.w3.org/1999/xlink" x="0px" y="0px"
	 viewBox="-41 164.9 512 512" style="enable-background:new -41 164.9 512 512;" xml:space="preserve">
<path d="M397.7,184.4H32.3c-29.5,0-53.6,24.1-53.6,53.6v365.8c0,29.5,24.1,53.6,53.6,53.6h365.3c29.5,0,53.6-24.1,53.6-53.6V238
	C451.2,208.5,427.1,184.4,397.7,184.4z M359.7,350.8c-1.1,0-2.2-0.1-3.3-0.1l-52.6,103.7c6.7,7.1,10.8,16.5,10.8,26.8
	c0,22-18.5,39.8-41.2,39.8c-22.8,0-41.2-17.8-41.2-39.8c0-2.4,0.2-4.7,0.6-7l-56.2-33.9c-6.8,4.8-15.2,7.6-24.2,7.6
	c-2.8,0-5.5-0.3-8.1-0.8L98.8,515c4.8,6.5,7.7,14.5,7.7,23.1c0,22-18.5,39.8-41.2,39.8c-22.8,0-41.2-17.8-41.2-39.8
	c0-22,18.5-39.8,41.2-39.8c2.8,0,5.5,0.3,8.1,0.8l45.5-67.9c-4.8-6.5-7.7-14.5-7.7-23.1c0-22,18.5-39.8,41.2-39.8
	s41.2,17.8,41.2,39.8c0,2.4-0.2,4.7-0.6,7l56.2,33.9c6.8-4.8,15.2-7.6,24.2-7.6c1.1,0,2.2,0.1,3.3,0.1l52.6-103.7
	c-6.7-7.1-10.8-16.5-10.8-26.8c0-22,18.5-39.8,41.2-39.8c22.8,0,41.2,17.8,41.2,39.8C400.9,333,382.4,350.8,359.7,350.8z"/>
</svg>
