<?xml version="1.0" encoding="utf-8"?>
<!-- Generator: Adobe Illustrator 19.1.0, SVG Export Plug-In . SVG Version: 6.00 Build 0)  -->
<svg version="1.1" id="layer_1" xmlns="http://www.w3.org/2000/svg" xmlns:xlink="http://www.w3.org/1999/xlink" x="0px" y="0px"
	 viewBox="0 0 512 512" style="enable-background:new 0 0 512 512;" xml:space="preserve">
<g>
	<path d="M425.4,86.9c1.5-54.1-42.4-53.6-43.4-54.1c-84,0-168-3-252,0c-38.6,1.4-43.1,44.5-43.2,54.1
		c-0.5,111.2-0.4,222.4-0.2,333.6c0,27.9,21.3,54.1,43.4,54.1c84,0,168,0,252,0c37,0,43.5-28,43.2-54.1
		C425.6,309.3,425.5,198.1,425.4,86.9z M391.8,440c-90.4,0-180.7,0-271.6,0c0-124,0-247.8,0-372.8c90.7,0,180.9,0,271.6,0
		C391.8,191.5,391.8,315.3,391.8,440z"/>
	<path d="M222.8,303.5c45.2,0,89.8,0,134.6,0c0-10.9,0-20.9,0-31.9c-45.2,0-89.6,0-134.6,0C222.8,282.3,222.8,292.8,222.8,303.5z"/>
	<path d="M339.8,203.8c-39.4,0-78,0-117.1,0c0,10.8,0,21,0,31.9c39.6,0,78.4,0,117.1,0C339.8,224.6,339.8,214.2,339.8,203.8z"/>
	<path d="M187.1,135.5c-11.2,0-21.7,0-32.3,0c0,11.1,0,21.5,0,32.5c11.4,0,21.8,0,32.3,0C187.1,156.7,187.1,146,187.1,135.5z"/>
	<path d="M155,372c11.1,0,21.5,0,32.1,0c0-11.2,0-21.9,0-32.9c-10.9,0-21.2,0-32.1,0C155,350.6,155,361.3,155,372z"/>
	<path d="M155,203.9c0,11.2,0,21.6,0,32.2c10.9,0,21.2,0,32,0c0-11.4,0-21.8,0-32.2C175.8,203.9,165.4,203.9,155,203.9z"/>
	<path d="M154.9,303.9c10.8,0,21,0,32.2,0c0-11.3,0-21.8,0-32.3c-11.1,0-21.6,0-32.2,0C154.9,282.6,154.9,293.1,154.9,303.9z"/>
	<path d="M222.7,371.3c39.6,0,78.4,0,117.1,0c0-11.1,0-21.5,0-31.9c-39.4,0-78,0-117.1,0C222.7,350.2,222.7,360.4,222.7,371.3z"/>
	<path d="M356.9,135.8c-45.2,0-89.6,0-134.6,0c0,10.8,0,21.2,0,31.9c45.2,0,89.8,0,134.6,0C356.9,156.9,356.9,146.9,356.9,135.8z"/>
</g>
</svg>
