<?xml version="1.0" encoding="utf-8"?>
<!-- Generator: Adobe Illustrator 19.1.0, SVG Export Plug-In . SVG Version: 6.00 Build 0)  -->
<svg version="1.1" id="layer_1" xmlns="http://www.w3.org/2000/svg" xmlns:xlink="http://www.w3.org/1999/xlink" x="0px" y="0px"
	 viewBox="0 0 283.5 283.5" style="enable-background:new 0 0 283.5 283.5;" xml:space="preserve">
<path d="M119,90.5l-80.5,51.3L119,193c0,0,0-18.7,0-26c18.5,0,35.6,0.1,52.7,0c11.6-0.1,14.5-2.6,14.7-12.6c0.1-4.2,0-8.4,0-12.6
	c0-4.2,0.1-8.4,0-12.6c-0.2-10-3.1-12.5-14.7-12.6c-17.1-0.1-34.2,0-52.7,0C119,109.2,119,90.5,119,90.5z"/>
<path d="M245,66.9c0-23.6-8.3-34.5-21.7-34.5c-13.4,0-133.4,0-148,0c-14.6,0-20,9.9-20.7,20.7c-1.1,15.2-0.3,30.6-0.3,46.7
	c14.1,0,18.1-9.2,18.1-35.6c0.1-13.4,1.8-15,16.6-15c39.2,0,78.5,0,117.7,0c18.5,0,19.5,0.8,19.5,16.8c0,25,0,50,0,75l0,0
	c0,0.2,0,0.5,0,0.7c0,0.2,0,0.5,0,0.7l0,0c0,25,0,50,0,75c0,16-0.9,16.8-19.5,16.8c-39.2,0-78.5,0-117.7,0c-14.8,0-16.6-1.6-16.6-15
	c0-26.4-4-35.6-18.1-35.6c0,16.1-0.8,31.5,0.3,46.7c0.8,10.8,6.2,20.7,20.7,20.7c14.6,0,134.6,0,148,0c13.4,0,21.7-10.8,21.7-34.5
	c-0.4-24.9-0.6-49.9-0.6-74.8C244.4,116.8,244.6,91.8,245,66.9z"/>
</svg>
